<svg width="20" height="20" viewBox="0 0 20 20" fill="none" xmlns="http://www.w3.org/2000/svg">
<path d="M3.75 13.75C2.5 14.8 2.08333 17.9167 2.08333 17.9167C2.08333 17.9167 5.2 17.5 6.25 16.25C6.84167 15.55 6.83333 14.475 6.175 13.825C5.85109 13.5158 5.42441 13.3372 4.97686 13.3233C4.5293 13.3095 4.0924 13.4614 3.75 13.75Z" stroke="currentColor" stroke-width="1.66667" stroke-linecap="round" stroke-linejoin="round"/>
<path d="M10 12.5L7.5 10C7.94345 8.84952 8.50184 7.74672 9.16667 6.70833C10.1377 5.15582 11.4897 3.87754 13.0942 2.99507C14.6986 2.11261 16.5022 1.65531 18.3333 1.66666C18.3333 3.93333 17.6833 7.91666 13.3333 10.8333C12.2807 11.4989 11.164 12.0573 10 12.5Z" stroke="currentColor" stroke-width="1.66667" stroke-linecap="round" stroke-linejoin="round"/>
<path d="M7.5 10H3.33333C3.33333 10 3.79167 7.475 5 6.66666C6.35 5.76666 9.16667 6.66666 9.16667 6.66666" stroke="currentColor" stroke-width="1.66667" stroke-linecap="round" stroke-linejoin="round"/>
<path d="M10 12.5V16.6667C10 16.6667 12.525 16.2083 13.3333 15C14.2333 13.65 13.3333 10.8333 13.3333 10.8333" stroke="currentColor" stroke-width="1.66667" stroke-linecap="round" stroke-linejoin="round"/>
</svg>
